HIERARCHY
ROOT hip
{
  OFFSET 0 0 0
  CHANNELS 6 Xposition Yposition Zposition Zrotation Yrotation Xrotation
  JOINT abdomen
  {
    OFFSET 0 20.6881 -0.73152
    CHANNELS 3 Zrotation Xrotation Yrotation
    JOINT chest
    {
      OFFSET 0 11.7043 -0.48768
      CHANNELS 3 Zrotation Xrotation Yrotation
      JOINT neck
      {
        OFFSET 0 22.1894 -2.19456
        CHANNELS 3 Zrotation Xrotation Yrotation
        JOINT head
        {
          OFFSET -0.24384 7.07133 1.2192
          CHANNELS 3 Zrotation Xrotation Yrotation
          JOINT leftEye
          {
            OFFSET 4.14528 8.04674 8.04672
            CHANNELS 3 Zrotation Xrotation Yrotation
            End Site
            {
              OFFSET 1 0 0
            }
          }
          JOINT rightEye
          {
            OFFSET -3.6576 8.04674 8.04672
            CHANNELS 3 Zrotation Xrotation Yrotation
            End Site
            {
              OFFSET 1 0 0
            }
          }
        }
      }
      JOINT rCollar
      {
        OFFSET -2.68224 19.2634 -4.8768
        CHANNELS 3 Zrotation Xrotation Yrotation
        JOINT rShldr
        {
          OFFSET -8.77824 -1.95073 1.46304
          CHANNELS 3 Zrotation Xrotation Yrotation
          JOINT rForeArm
          {
            OFFSET -28.1742 -1.7115 0.48768
            CHANNELS 3 Zrotation Xrotation Yrotation
            JOINT rHand
            {
              OFFSET -22.5879 0.773209 7.07136
              CHANNELS 3 Zrotation Xrotation Yrotation
              JOINT rThumb1
              {
                OFFSET -1.2192 -0.487915 3.41376
                CHANNELS 3 Zrotation Xrotation Yrotation
                JOINT rThumb2
                {
                  OFFSET -3.37035 -0.52449 3.41376
                  CHANNELS 3 Zrotation Xrotation Yrotation
                  End Site
                  {
                    OFFSET -1.78271 -1.18214 1.43049
                  }
                }
              }
              JOINT rIndex1
              {
                OFFSET -7.75947 0.938293 5.60832
                CHANNELS 3 Zrotation Xrotation Yrotation
                JOINT rIndex2
                {
                  OFFSET -2.54057 -0.884171 1.56538
                  CHANNELS 3 Zrotation Xrotation Yrotation
                  End Site
                  {
                    OFFSET -1.62519 -0.234802 1.16502
                  }
                }
              }
              JOINT rMid1
              {
                OFFSET -8.24714 1.18213 3.41376
                CHANNELS 3 Zrotation Xrotation Yrotation
                JOINT rMid2
                {
                  OFFSET -3.10165 -0.590103 1.0647
                  CHANNELS 3 Zrotation Xrotation Yrotation
                  End Site
                  {
                    OFFSET -2.48547 -0.328903 0.83742
                  }
                }
              }
              JOINT rRing1
              {
                OFFSET -8.82822 0.546677 1.51678
                CHANNELS 3 Zrotation Xrotation Yrotation
                JOINT rRing2
                {
                  OFFSET -2.60934 -0.819778 -0.0198488
                  CHANNELS 3 Zrotation Xrotation Yrotation
                  End Site
                  {
                    OFFSET -2.33842 -0.294052 0.168128
                  }
                }
              }
              JOINT rPinky1
              {
                OFFSET -8.27202 -0.0477905 -0.4584
                CHANNELS 3 Zrotation Xrotation Yrotation
                JOINT rPinky2
                {
                  OFFSET -1.82734 -0.647385 -0.700984
                  CHANNELS 3 Zrotation Xrotation Yrotation
                  End Site
                  {
                    OFFSET -1.69225 -0.51767 -0.607171
                  }
                }
              }
            }
          }
        }
      }
      JOINT lCollar
      {
        OFFSET 2.68224 19.2634 -4.8768
        CHANNELS 3 Zrotation Xrotation Yrotation
        JOINT lShldr
        {
          OFFSET 8.77824 -1.95073 1.46304
          CHANNELS 3 Zrotation Xrotation Yrotation
          JOINT lForeArm
          {
            OFFSET 28.1742 -1.7115 0.48768
            CHANNELS 3 Zrotation Xrotation Yrotation
            JOINT lHand
            {
              OFFSET 22.5879 0.773209 7.07136
              CHANNELS 3 Zrotation Xrotation Yrotation
              JOINT lThumb1
              {
                OFFSET 1.2192 -0.487915 3.41376
                CHANNELS 3 Zrotation Xrotation Yrotation
                JOINT lThumb2
                {
                  OFFSET 3.37035 -0.52449 3.41376
                  CHANNELS 3 Zrotation Xrotation Yrotation
                  End Site
                  {
                    OFFSET 1.78271 -1.18214 1.43049
                  }
                }
              }
              JOINT lIndex1
              {
                OFFSET 7.75947 0.938293 5.60832
                CHANNELS 3 Zrotation Xrotation Yrotation
                JOINT lIndex2
                {
                  OFFSET 2.54057 -0.884171 1.56538
                  CHANNELS 3 Zrotation Xrotation Yrotation
                  End Site
                  {
                    OFFSET 1.62519 -0.234802 1.16502
                  }
                }
              }
              JOINT lMid1
              {
                OFFSET 8.24714 1.18213 3.41376
                CHANNELS 3 Zrotation Xrotation Yrotation
                JOINT lMid2
                {
                  OFFSET 3.10165 -0.590103 1.0647
                  CHANNELS 3 Zrotation Xrotation Yrotation
                  End Site
                  {
                    OFFSET 2.48547 -0.328903 0.83742
                  }
                }
              }
              JOINT lRing1
              {
                OFFSET 8.82822 0.546677 1.51678
                CHANNELS 3 Zrotation Xrotation Yrotation
                JOINT lRing2
                {
                  OFFSET 2.60934 -0.819778 -0.0198488
                  CHANNELS 3 Zrotation Xrotation Yrotation
                  End Site
                  {
                    OFFSET 2.33842 -0.294052 0.168128
                  }
                }
              }
              JOINT lPinky1
              {
                OFFSET 8.27202 -0.0477905 -0.4584
                CHANNELS 3 Zrotation Xrotation Yrotation
                JOINT lPinky2
                {
                  OFFSET 1.82734 -0.647385 -0.700984
                  CHANNELS 3 Zrotation Xrotation Yrotation
                  End Site
                  {
                    OFFSET 1.69225 -0.51767 -0.607171
                  }
                }
              }
            }
          }
        }
      }
    }
  }
  JOINT rButtock
  {
    OFFSET -8.77824 4.35084 1.2192
    CHANNELS 3 Zrotation Xrotation Yrotation
    JOINT rThigh
    {
      OFFSET 0 -1.70687 -2.19456
      CHANNELS 3 Zrotation Xrotation Yrotation
      JOINT rShin
      {
        OFFSET 0 -36.8199 0.73152
        CHANNELS 3 Zrotation Xrotation Yrotation
        JOINT rFoot
        {
          OFFSET 0.73152 -45.1104 -5.12064
          CHANNELS 3 Zrotation Xrotation Yrotation
          End Site
          {
            OFFSET -1.1221 -3.69964 12.103
          }
        }
      }
    }
  }
  JOINT lButtock
  {
    OFFSET 8.77824 4.35084 1.2192
    CHANNELS 3 Zrotation Xrotation Yrotation
    JOINT lThigh
    {
      OFFSET 0 -1.70687 -2.19456
      CHANNELS 3 Zrotation Xrotation Yrotation
      JOINT lShin
      {
        OFFSET 0 -36.8199 0.73152
        CHANNELS 3 Zrotation Xrotation Yrotation
        JOINT lFoot
        {
          OFFSET -0.73152 -45.1104 -5.12064
          CHANNELS 3 Zrotation Xrotation Yrotation
          End Site
          {
            OFFSET 1.1221 -3.69964 12.103
          }
        }
      }
    }
  }
}
MOTION
Frames:	4
Frame Time:	0.03333
-8.226012269830782 35.0357968570389 -20.413913207661192 -20.71539878845215 -25.982698440551758 13.203198432922363 16.760597229003906 7.497321605682373 9.616250038146973 -1.8186699151992798 -7.950510501861572 2.725250005722046 -2.7998998165130615 14.745099067687988 2.593679904937744 7.840389728546143 -23.03809928894043 6.75223970413208 -0.0 0.0 -0.0 -0.0 0.0 -0.0 1.0177774421860075e-13 4.834442850383536e-13 -1.5266661632790113e-13 76.65009307861328 38.57489776611328 -17.860097885131836 -19.977096557617188 -12.983000755310059 38.62430191040039 -0.26869794726371765 14.59749984741211 2.0975897312164307 1.3288865563509944e-09 -6.753716474960925e-10 7.734853868512914e-10 2.309158864122196e-09 -1.1653805698230713e-09 1.3106620233571675e-09 1.3288865563509944e-09 -6.753716474960925e-10 7.734726747976595e-10 7.7309088706970215 5.474880218505859 0.41731396317481995 1.3288865563509944e-09 -6.753716474960925e-10 7.734853868512914e-10 2.9055399894714355 0.9651829600334167 0.10290198773145676 1.3288865563509944e-09 -6.753716474960925e-10 7.734853868512914e-10 10.27859878540039 0.73180091381073 0.025912299752235413 1.3288865563509944e-09 -6.753716474960925e-10 7.73491770633683e-10 2.2216696739196777 -0.7334870100021362 -0.2089199721813202 1.0177774421860075e-13 4.834442850383536e-13 -1.5266661632790113e-13 -71.11569213867188 22.816497802734375 -7.781519889831543 15.180097579956055 -7.947229385375977 -27.959897994995117 0.02642909623682499 4.635009765625 -0.6528488993644714 3.033282069964116e-09 6.106206651423918e-09 1.7605005231402515e-09 5.2586526244624565e-09 1.0552392737395166e-08 3.024592798439585e-09 3.033282069964116e-09 6.106206651423918e-09 1.7605068514114919e-09 -7.7309088706970215 5.474880218505859 -0.41731396317481995 3.033282069964116e-09 6.106206651423918e-09 1.7605005231402515e-09 -2.9055399894714355 0.9651829600334167 -0.10290198773145676 3.033282069964116e-09 6.106206651423918e-09 1.7605005231402515e-09 -10.27859878540039 0.73180091381073 -0.025912299752235413 3.033282069964116e-09 6.106231964508879e-09 1.7604877555754683e-09 -2.2216696739196777 -0.7334870100021362 0.2089199721813202 -0.0 0.0 -0.0 0.7655959725379944 8.484399795532227 -6.831589698791504 0.005385995376855135 33.422298431396484 2.0281999111175537 -11.934497833251953 -19.833099365234375 -30.592798233032227 -0.0 0.0 -0.0 75.35209655761719 -55.5681037902832 65.22239685058594 2.614349603652954 72.42950439453125 -2.6635396480560303 0.7439358830451965 -1.067370057106018 1.3610700368881226
-8.21741790249561 35.00823704373791 -20.392140810745595 -20.751197814941406 -25.75979995727539 13.115099906921387 16.922800064086914 7.485509395599365 9.49441909790039 -1.8228999376296997 -7.969660758972168 2.6909701824188232 -2.775740385055542 14.732599258422852 2.584329843521118 7.721529483795166 -23.0054988861084 6.706940174102783 -0.0 0.0 -0.0 -0.0 0.0 -0.0 1.0177774421860075e-13 4.579998489837034e-13 -2.035554884372015e-13 76.414794921875 38.278297424316406 -17.798898696899414 -19.99730110168457 -13.00839900970459 38.67329406738281 -0.2716580033302307 14.675799369812012 2.1093502044677734 1.6595879115399725e-09 -1.084009326746127e-09 9.04823216352213e-10 2.8828290865590134e-09 -1.871870880520987e-09 1.5339624015453523e-09 1.6595879115399725e-09 -1.084009326746127e-09 9.048041205161894e-10 7.7309088706970215 5.474880218505859 0.41731396317481995 1.6595879115399725e-09 -1.084009326746127e-09 9.04823216352213e-10 2.9055399894714355 0.9651829600334167 0.10290198773145676 1.6595879115399725e-09 -1.084009326746127e-09 9.048168880809726e-10 10.27859878540039 0.73180091381073 0.025912299752235413 1.6595879115399725e-09 -1.084009326746127e-09 9.04823216352213e-10 2.2216696739196777 -0.7334870100021362 -0.2089199721813202 1.0177774421860075e-13 4.579998489837034e-13 -2.035554884372015e-13 -71.32839965820312 22.69969940185547 -7.7178802490234375 15.055096626281738 -7.838110446929932 -27.70199966430664 0.03328398987650871 5.206520080566406 -0.7337609529495239 3.560618022646622e-09 6.903329907714806e-09 1.851572561939463e-09 6.170683075623629e-09 1.1929089716034014e-08 3.180529173363311e-09 3.560618022646622e-09 6.903329907714806e-09 1.8515916577754865e-09 -7.7309088706970215 5.474880218505859 -0.41731396317481995 3.560618022646622e-09 6.903329907714806e-09 1.8515788902107033e-09 -2.9055399894714355 0.9651829600334167 -0.10290198773145676 3.560618022646622e-09 6.903329907714806e-09 1.851572561939463e-09 -10.27859878540039 0.73180091381073 -0.025912299752235413 3.560618022646622e-09 6.903329907714806e-09 1.8515597943746798e-09 -2.2216696739196777 -0.7334870100021362 0.2089199721813202 -0.0 0.0 -0.0 0.8522288799285889 8.629369735717773 -6.836899280548096 0.00663352757692337 33.374900817871094 2.031820058822632 -11.994098663330078 -19.871999740600586 -30.67519760131836 -0.0 0.0 -0.0 75.24209594726562 -55.7660026550293 65.02189636230469 2.6285998821258545 72.50519561767578 -2.680959939956665 0.739406943321228 -1.120919942855835 1.331649899482727
-8.22286100172451 34.98205351355466 -20.37151432980819 -20.740997314453125 -25.58049964904785 13.01140022277832 17.100698471069336 7.610219478607178 9.433878898620605 -1.8242000341415405 -8.02439022064209 2.6785600185394287 -2.7251198291778564 14.713201522827148 2.538949966430664 7.528979301452637 -23.02320098876953 6.5796895027160645 -0.0 0.0 -0.0 -0.0 0.0 -0.0 -2.5444436054650188e-14 -7.633330816395056e-14 8.269441717761311e-14 76.23469543457031 37.878501892089844 -17.831199645996094 -20.02899932861328 -13.048299789428711 38.750301361083984 -0.27590298652648926 14.786599159240723 2.125999927520752 5.369794053855514e-10 -7.164644433288458e-10 4.159592670305301e-10 9.326658334529725e-10 -1.2392458170751297e-09 7.140854019205278e-10 5.369794053855514e-10 -7.164644433288458e-10 4.159656508129217e-10 7.7309088706970215 5.474880218505859 0.41731396317481995 5.369794053855514e-10 -7.164898674361098e-10 4.1597200683973767e-10 2.9055399894714355 0.9651829600334167 0.10290198773145676 5.369794053855514e-10 -7.164644433288458e-10 4.159592670305301e-10 10.27859878540039 0.73180091381073 0.025912299752235413 5.369794053855514e-10 -7.164644433288458e-10 4.159656508129217e-10 2.2216696739196777 -0.7334870100021362 -0.2089199721813202 -2.5444436054650188e-14 -7.633330816395056e-14 8.269441717761311e-14 -71.5116958618164 22.650299072265625 -7.7382988929748535 14.928898811340332 -7.728939056396484 -27.442399978637695 0.0417729988694191 5.829779624938965 -0.822179913520813 1.1146698009056877e-09 1.6549061010451283e-09 1.97327959527982e-10 1.9287900165920746e-09 2.8565958487547505e-09 3.355548616745807e-10 1.1146698009056877e-09 1.6549061010451283e-09 1.9735341139082152e-10 -7.7309088706970215 5.474880218505859 -0.41731396317481995 1.1146698009056877e-09 1.6549315251523922e-09 1.9733432943258578e-10 -2.9055399894714355 0.9651829600334167 -0.10290198773145676 1.1146698009056877e-09 1.6549315251523922e-09 1.97327959527982e-10 -10.27859878540039 0.73180091381073 -0.025912299752235413 1.1146698009056877e-09 1.6549315251523922e-09 1.97321603501166e-10 -2.2216696739196777 -0.7334870100021362 0.2089199721813202 -0.0 0.0 -0.0 0.971350908279419 8.811779022216797 -6.843709468841553 0.007473068777471781 33.37779235839844 2.038749933242798 -12.072498321533203 -19.905399322509766 -30.80039405822754 -0.0 0.0 -0.0 75.14139556884766 -55.905094146728516 64.82239532470703 2.645209550857544 72.58740234375 -2.6985297203063965 0.7385030388832092 -1.1807000637054443 1.3069400787353516
-8.226929002196457 34.94486654861853 -20.35375263798251 -20.843896865844727 -25.44659996032715 12.936599731445312 17.290298461914062 7.635139465332031 9.397289276123047 -1.8335800170898438 -7.994259357452393 2.671029806137085 -2.6950998306274414 14.6766996383667 2.507970094680786 7.466609477996826 -23.03820037841797 6.508849620819092 -0.0 0.0 -0.0 -0.0 0.0 -0.0 7.062249689118779e-30 -2.544443605465019e-13 2.8624991916734177e-13 76.06769561767578 37.56159591674805 -17.8185977935791 -20.044898986816406 -13.068199157714844 38.78889465332031 -0.27410101890563965 14.74009895324707 2.11899995803833 -3.3561212142707575e-10 -8.299975290393391e-11 -1.030881352503954e-10 -5.827793803092618e-10 -1.4510961876545991e-10 -1.6757704945913332e-10 -3.355866695642362e-10 -8.299975290393391e-11 -1.0308177228468551e-10 7.7309088706970215 5.474880218505859 0.41731396317481995 -3.3561212142707575e-10 -8.299975290393391e-11 -1.0307540931897563e-10 2.9055399894714355 0.9651829600334167 0.10290198773145676 -3.3561212142707575e-10 -8.297430797998828e-11 -1.030881352503954e-10 10.27859878540039 0.73180091381073 0.025912299752235413 -3.3561212142707575e-10 -8.297430797998828e-11 -1.0307540931897563e-10 2.2216696739196777 -0.7334870100021362 -0.2089199721813202 7.062249689118779e-30 -2.544443605465019e-13 2.8624991916734177e-13 -71.63139343261719 22.634199142456055 -7.822969436645508 14.798797607421875 -7.617510795593262 -27.175500869750977 0.049895189702510834 6.3572096824646 -0.8971759080886841 -8.719808208823565e-10 -2.008838206890573e-09 -7.731864593019111e-10 -1.5122136876044578e-09 -3.4699341178168197e-09 -1.3293890432919397e-09 -8.719808208823565e-10 -2.008838206890573e-09 -7.73160979683496e-10 -7.7309088706970215 5.474880218505859 -0.41731396317481995 -8.719808208823565e-10 -2.0088126717610066e-09 -7.731800755195195e-10 -2.9055399894714355 0.9651829600334167 -0.10290198773145676 -8.719808208823565e-10 -2.0088126717610066e-09 -7.731800755195195e-10 -10.27859878540039 0.73180091381073 -0.025912299752235413 -8.719808208823565e-10 -2.0088126717610066e-09 -7.731864593019111e-10 -2.2216696739196777 -0.7334870100021362 0.2089199721813202 -0.0 0.0 -0.0 1.091249942779541 8.927109718322754 -6.855929851531982 0.008153941482305527 33.40510177612305 2.045609951019287 -12.136798858642578 -19.932199478149414 -30.907102584838867 -0.0 0.0 -0.0 75.260498046875 -55.98099899291992 64.8626937866211 2.673109531402588 72.71829223632812 -2.7250397205352783 0.7257320284843445 -1.2461899518966675 1.17877995967865
